bicep_curl
version=1
nRows=181
nColumns=3
inDegrees=yes

# SIMM Motion File Header:
name bicep_curl
datacolumns 3
datarows 181
otherdata 1
range 0.0000 0.1800
endheader
time	/jointset/r_shoulder/r_shoulder_elev/value	/jointset/r_elbow/r_elbow_flex/value
0.0000	0.0000	49.7000
0.0010	0.0000	49.9979
0.0020	0.0000	50.2958
0.0030	0.0000	50.5938
0.0040	0.0000	50.8917
0.0050	0.0000	51.1896
0.0060	0.0000	51.4875
0.0070	0.0000	51.7854
0.0080	0.0000	52.0834
0.0090	0.0000	52.3813
0.0100	0.0000	52.6792
0.0110	0.0000	52.9771
0.0120	0.0000	53.2750
0.0130	0.0000	53.5730
0.0140	0.0000	53.8709
0.0150	0.0000	54.1688
0.0160	0.0000	54.4667
0.0170	0.0000	54.7646
0.0180	0.0000	55.0626
0.0190	0.0000	55.3605
0.0200	0.0000	55.6584
0.0210	0.0000	55.9563
0.0220	0.0000	56.2542
0.0230	0.0000	56.5522
0.0240	0.0000	56.8501
0.0250	0.0000	57.1480
0.0260	0.0000	57.4459
0.0270	0.0000	57.7438
0.0280	0.0000	58.0418
0.0290	0.0000	58.3397
0.0300	0.0000	58.6376
0.0310	0.0000	58.9355
0.0320	0.0000	59.2334
0.0330	0.0000	59.5314
0.0340	0.0000	59.8293
0.0350	0.0000	60.1272
0.0360	0.0000	60.4251
0.0370	0.0000	60.7230
0.0380	0.0000	61.0210
0.0390	0.0000	61.3189
0.0400	0.0000	61.6168
0.0410	0.0000	61.9147
0.0420	0.0000	62.2126
0.0430	0.0000	62.5106
0.0440	0.0000	62.8085
0.0450	0.0000	63.1064
0.0460	0.0000	63.4043
0.0470	0.0000	63.7022
0.0480	0.0000	64.0002
0.0490	0.0000	64.2981
0.0500	0.0000	64.5960
0.0510	0.0000	64.8939
0.0520	0.0000	65.1918
0.0530	0.0000	65.4898
0.0540	0.0000	65.7877
0.0550	0.0000	66.0856
0.0560	0.0000	66.3835
0.0570	0.0000	66.6814
0.0580	0.0000	66.9794
0.0590	0.0000	67.2773
0.0600	0.0000	67.5752
0.0610	0.0000	67.8731
0.0620	0.0000	68.1710
0.0630	0.0000	68.4690
0.0640	0.0000	68.7669
0.0650	0.0000	69.0648
0.0660	0.0000	69.3627
0.0670	0.0000	69.6606
0.0680	0.0000	69.9586
0.0690	0.0000	70.2565
0.0700	0.0000	70.5544
0.0710	0.0000	70.8523
0.0720	0.0000	71.1502
0.0730	0.0000	71.4482
0.0740	0.0000	71.7461
0.0750	0.0000	72.0440
0.0760	0.0000	72.3419
0.0770	0.0000	72.6398
0.0780	0.0000	72.9378
0.0790	0.0000	73.2357
0.0800	0.0000	73.5336
0.0810	0.0000	73.8315
0.0820	0.0000	74.1294
0.0830	0.0000	74.4274
0.0840	0.0000	74.7253
0.0850	0.0000	75.0232
0.0860	0.0000	75.3211
0.0870	0.0000	75.6190
0.0880	0.0000	75.9170
0.0890	0.0000	76.2149
0.0900	0.0000	76.5128
0.0910	0.0000	76.8107
0.0920	0.0000	77.1086
0.0930	0.0000	77.4066
0.0940	0.0000	77.7045
0.0950	0.0000	78.0024
0.0960	0.0000	78.3003
0.0970	0.0000	78.5982
0.0980	0.0000	78.8962
0.0990	0.0000	79.1941
0.1000	0.0000	79.4920
0.1010	0.0000	79.7899
0.1020	0.0000	80.0878
0.1030	0.0000	80.3858
0.1040	0.0000	80.6837
0.1050	0.0000	80.9816
0.1060	0.0000	81.2795
0.1070	0.0000	81.5774
0.1080	0.0000	81.8754
0.1090	0.0000	82.1733
0.1100	0.0000	82.4712
0.1110	0.0000	82.7691
0.1120	0.0000	83.0670
0.1130	0.0000	83.3650
0.1140	0.0000	83.6629
0.1150	0.0000	83.9608
0.1160	0.0000	84.2587
0.1170	0.0000	84.5566
0.1180	0.0000	84.8546
0.1190	0.0000	85.1525
0.1200	0.0000	85.4504
0.1210	0.0000	85.7483
0.1220	0.0000	86.0462
0.1230	0.0000	86.3442
0.1240	0.0000	86.6421
0.1250	0.0000	86.9400
0.1260	0.0000	87.2379
0.1270	0.0000	87.5358
0.1280	0.0000	87.8338
0.1290	0.0000	88.1317
0.1300	0.0000	88.4296
0.1310	0.0000	88.7275
0.1320	0.0000	89.0254
0.1330	0.0000	89.3234
0.1340	0.0000	89.6213
0.1350	0.0000	89.9192
0.1360	0.0000	90.2171
0.1370	0.0000	90.5150
0.1380	0.0000	90.8130
0.1390	0.0000	91.1109
0.1400	0.0000	91.4088
0.1410	0.0000	91.7067
0.1420	0.0000	92.0046
0.1430	0.0000	92.3026
0.1440	0.0000	92.6005
0.1450	0.0000	92.8984
0.1460	0.0000	93.1963
0.1470	0.0000	93.4942
0.1480	0.0000	93.7922
0.1490	0.0000	94.0901
0.1500	0.0000	94.3880
0.1510	0.0000	94.6859
0.1520	0.0000	94.9838
0.1530	0.0000	95.2818
0.1540	0.0000	95.5797
0.1550	0.0000	95.8776
0.1560	0.0000	96.1755
0.1570	0.0000	96.4734
0.1580	0.0000	96.7714
0.1590	0.0000	97.0693
0.1600	0.0000	97.3672
0.1610	0.0000	97.6651
0.1620	0.0000	97.9630
0.1630	0.0000	98.2610
0.1640	0.0000	98.5589
0.1650	0.0000	98.8568
0.1660	0.0000	99.1547
0.1670	0.0000	99.4526
0.1680	0.0000	99.7506
0.1690	0.0000	100.0485
0.1700	0.0000	100.3464
0.1710	0.0000	100.6443
0.1720	0.0000	100.9422
0.1730	0.0000	101.2402
0.1740	0.0000	101.5381
0.1750	0.0000	101.8360
0.1760	0.0000	102.1339
0.1770	0.0000	102.4318
0.1780	0.0000	102.7298
0.1790	0.0000	103.0277
0.1800	0.0000	103.3256
